<svg width="972" height="702" viewBox="0 0 972 702" fill="none" xmlns="http://www.w3.org/2000/svg">
<path fill-rule="evenodd" clip-rule="evenodd" d="M676.966 222.02C693.582 218.422 710.833 216.526 728.526 216.526C862.47 216.526 971.053 325.109 971.053 459.053C971.053 592.996 862.47 701.579 728.526 701.579C662.806 701.579 603.192 675.437 559.513 632.987C501.3 676.089 429.258 701.579 351.263 701.579C157.789 701.579 0.947266 544.737 0.947266 351.263C0.947266 157.789 157.789 0.947388 351.263 0.947388C499.09 0.947388 625.531 92.5126 676.966 222.02ZM625.806 239.289C581.631 131.089 475.351 54.8421 351.263 54.8421C187.554 54.8421 54.842 187.554 54.842 351.263C54.842 514.972 187.554 647.684 351.263 647.684C416.248 647.684 476.349 626.774 525.203 591.313C500.408 553.274 486 507.845 486 459.053C486 361.826 543.212 277.962 625.806 239.289ZM600.424 597.516C634.064 628.654 679.072 647.684 728.526 647.684C832.705 647.684 917.158 563.231 917.158 459.053C917.158 354.874 832.705 270.421 728.526 270.421C716.374 270.421 704.49 271.571 692.977 273.766C698.607 298.696 701.579 324.632 701.579 351.263C701.579 447.261 662.966 534.24 600.424 597.516ZM641.67 291.563C581.2 322.985 539.895 386.196 539.895 459.053C539.895 494.217 549.517 527.135 566.272 555.316C616.727 502.169 647.684 430.331 647.684 351.263C647.684 330.814 645.613 310.847 641.67 291.563Z" fill="#009BFF"/>
</svg>
